<?xml version="1.0" encoding="UTF-8" standalone="no"?>
<!DOCTYPE svg PUBLIC "-//W3C//DTD SVG 1.1//EN"
 "http://www.w3.org/Graphics/SVG/1.1/DTD/svg11.dtd">
<!-- Generated by graphviz version 2.26.3 (20100126.1600)
 -->
<!-- Title: G Pages: 1 -->
<svg width="784pt" height="264pt"
 viewBox="0.00 0.00 784.00 264.00" xmlns="http://www.w3.org/2000/svg" xmlns:xlink="http://www.w3.org/1999/xlink">
<g id="graph1" class="graph" transform="scale(1 1) rotate(0) translate(4 260)">
<title>G</title>
<polygon fill="white" stroke="white" points="-4,5 -4,-260 781,-260 781,5 -4,5"/>
<!-- c0 -->
<g id="node1" class="node"><title>c0</title>
<polygon fill="none" stroke="black" points="247,-220 247,-251 320,-251 320,-220 247,-220"/>
<text text-anchor="start" x="251.5" y="-239.167" font-family="Helvetica,sans-Serif" font-size="10.00"> «interface» </text>
<text text-anchor="start" x="256" y="-226.667" font-family="Helvetica,sans-Serif" font-size="10.00"> IBehavior </text>
</g>
<!-- c1 -->
<g id="node2" class="node"><title>c1</title>
<polygon fill="none" stroke="black" points="256,-152 256,-171 310,-171 310,-152 256,-152"/>
<text text-anchor="start" x="260.5" y="-159.167" font-family="Helvetica,sans-Serif" font-style="oblique" font-size="10.00"> Behavior </text>
</g>
<!-- c0&#45;&gt;c1 -->
<g id="edge2" class="edge"><title>c0:p&#45;&gt;c1:p</title>
<path fill="none" stroke="black" stroke-dasharray="5,2" d="M283,-210.199C283,-196.83 283,-181.309 283,-171.57"/>
<polygon fill="none" stroke="black" points="279.5,-210.306 283,-220.307 286.5,-210.307 279.5,-210.306"/>
</g>
<!-- c2 -->
<g id="node3" class="node"><title>c2</title>
<polygon fill="none" stroke="black" points="119,-80 119,-99 150,-99 150,-80 119,-80"/>
<text text-anchor="start" x="123.5" y="-87.1667" font-family="Helvetica,sans-Serif" font-style="oblique" font-size="10.00"> Eat </text>
</g>
<!-- c1&#45;&gt;c2 -->
<g id="edge4" class="edge"><title>c1:p&#45;&gt;c2:p</title>
<path fill="none" stroke="black" d="M254.151,-148.06C223.012,-133.013 174.558,-109.598 149.77,-97.6206"/>
<polygon fill="none" stroke="black" points="252.687,-151.239 263.214,-152.439 255.733,-144.937 252.687,-151.239"/>
</g>
<!-- c5 -->
<g id="node6" class="node"><title>c5</title>
<polygon fill="none" stroke="black" points="263,-80 263,-99 303,-99 303,-80 263,-80"/>
<text text-anchor="start" x="267.5" y="-87.1667" font-family="Helvetica,sans-Serif" font-style="oblique" font-size="10.00"> Move </text>
</g>
<!-- c1&#45;&gt;c5 -->
<g id="edge10" class="edge"><title>c1:p&#45;&gt;c5:p</title>
<path fill="none" stroke="black" d="M283,-142.243C283,-128.357 283,-110.393 283,-99.5564"/>
<polygon fill="none" stroke="black" points="279.5,-142.29 283,-152.29 286.5,-142.29 279.5,-142.29"/>
</g>
<!-- c8 -->
<g id="node9" class="node"><title>c8</title>
<polygon fill="none" stroke="black" points="490,-80 490,-99 553,-99 553,-80 490,-80"/>
<text text-anchor="start" x="494.5" y="-87.1667" font-family="Helvetica,sans-Serif" font-style="oblique" font-size="10.00"> Reproduce </text>
</g>
<!-- c1&#45;&gt;c8 -->
<g id="edge16" class="edge"><title>c1:p&#45;&gt;c8:p</title>
<path fill="none" stroke="black" d="M319.996,-150.808C366.552,-136.724 445.703,-112.779 489.503,-99.5285"/>
<polygon fill="none" stroke="black" points="318.86,-147.495 310.302,-153.741 320.887,-154.195 318.86,-147.495"/>
</g>
<!-- c3 -->
<g id="node4" class="node"><title>c3</title>
<polygon fill="none" stroke="black" points="8,-8 8,-27 72,-27 72,-8 8,-8"/>
<text text-anchor="start" x="12.5" y="-15.1667" font-family="Helvetica,sans-Serif" font-size="10.00"> SheepEat </text>
</g>
<!-- c2&#45;&gt;c3 -->
<g id="edge6" class="edge"><title>c2:p&#45;&gt;c3:p</title>
<path fill="none" stroke="black" d="M113.167,-74.0431C94.5719,-59.7998 67.955,-39.4123 52.4764,-27.5564"/>
<polygon fill="none" stroke="black" points="111.256,-76.9875 121.323,-80.2898 115.512,-71.4304 111.256,-76.9875"/>
</g>
<!-- c4 -->
<g id="node5" class="node"><title>c4</title>
<polygon fill="none" stroke="black" points="106,-8 106,-27 163,-27 163,-8 106,-8"/>
<text text-anchor="start" x="110.5" y="-15.1667" font-family="Helvetica,sans-Serif" font-size="10.00"> WolfEat </text>
</g>
<!-- c2&#45;&gt;c4 -->
<g id="edge8" class="edge"><title>c2:p&#45;&gt;c4:p</title>
<path fill="none" stroke="black" d="M134,-70.2426C134,-56.3573 134,-38.393 134,-27.5564"/>
<polygon fill="none" stroke="black" points="130.5,-70.2897 134,-80.2898 137.5,-70.2898 130.5,-70.2897"/>
</g>
<!-- c6 -->
<g id="node7" class="node"><title>c6</title>
<polygon fill="none" stroke="black" points="196,-8 196,-27 269,-27 269,-8 196,-8"/>
<text text-anchor="start" x="200.5" y="-15.1667" font-family="Helvetica,sans-Serif" font-size="10.00"> SheepMove </text>
</g>
<!-- c5&#45;&gt;c6 -->
<g id="edge12" class="edge"><title>c5:p&#45;&gt;c6:p</title>
<path fill="none" stroke="black" d="M270.16,-71.8724C260.186,-57.7914 246.749,-38.8222 238.769,-27.5564"/>
<polygon fill="none" stroke="black" points="267.486,-74.1526 276.122,-80.2898 273.198,-70.1064 267.486,-74.1526"/>
</g>
<!-- c7 -->
<g id="node8" class="node"><title>c7</title>
<polygon fill="none" stroke="black" points="302,-8 302,-27 368,-27 368,-8 302,-8"/>
<text text-anchor="start" x="306.5" y="-15.1667" font-family="Helvetica,sans-Serif" font-size="10.00"> WolfMove </text>
</g>
<!-- c5&#45;&gt;c7 -->
<g id="edge14" class="edge"><title>c5:p&#45;&gt;c7:p</title>
<path fill="none" stroke="black" d="M296.092,-71.8724C306.262,-57.7914 319.962,-38.8222 328.098,-27.5564"/>
<polygon fill="none" stroke="black" points="293.031,-70.1337 290.013,-80.2898 298.705,-74.2322 293.031,-70.1337"/>
</g>
<!-- c9 -->
<g id="node10" class="node"><title>c9</title>
<polygon fill="none" stroke="black" points="402,-8 402,-27 504,-27 504,-8 402,-8"/>
<text text-anchor="start" x="406.5" y="-15.1667" font-family="Helvetica,sans-Serif" font-size="10.00"> GrassReproduce </text>
</g>
<!-- c8&#45;&gt;c9 -->
<g id="edge18" class="edge"><title>c8:p&#45;&gt;c9:p</title>
<path fill="none" stroke="black" d="M504.634,-72.6717C491.266,-58.5168 472.868,-39.0368 462.025,-27.5564"/>
<polygon fill="none" stroke="black" points="502.418,-75.4228 511.829,-80.2898 507.508,-70.6164 502.418,-75.4228"/>
</g>
<!-- c10 -->
<g id="node11" class="node"><title>c10</title>
<polygon fill="none" stroke="black" points="538,-8 538,-27 640,-27 640,-8 538,-8"/>
<text text-anchor="start" x="542.5" y="-15.1667" font-family="Helvetica,sans-Serif" font-size="10.00"> SheepReproduce </text>
</g>
<!-- c8&#45;&gt;c10 -->
<g id="edge20" class="edge"><title>c8:p&#45;&gt;c10:p</title>
<path fill="none" stroke="black" d="M537.366,-72.6717C550.734,-58.5168 569.132,-39.0368 579.975,-27.5564"/>
<polygon fill="none" stroke="black" points="534.492,-70.6164 530.171,-80.2898 539.582,-75.4228 534.492,-70.6164"/>
</g>
<!-- c11 -->
<g id="node12" class="node"><title>c11</title>
<polygon fill="none" stroke="black" points="674,-8 674,-27 769,-27 769,-8 674,-8"/>
<text text-anchor="start" x="678.5" y="-15.1667" font-family="Helvetica,sans-Serif" font-size="10.00"> WolfReproduce </text>
</g>
<!-- c8&#45;&gt;c11 -->
<g id="edge22" class="edge"><title>c8:p&#45;&gt;c11:p</title>
<path fill="none" stroke="black" d="M557.079,-77.0117C596.586,-62.7889 659.011,-40.316 694.332,-27.6006"/>
<polygon fill="none" stroke="black" points="555.782,-73.7586 547.558,-80.439 558.153,-80.3448 555.782,-73.7586"/>
</g>
</g>
</svg>
