<?xml version="1.0" encoding="UTF-8" standalone="no"?>
<!DOCTYPE svg PUBLIC "-//W3C//DTD SVG 1.1//EN"
 "http://www.w3.org/Graphics/SVG/1.1/DTD/svg11.dtd">
<!-- Generated by graphviz version 2.26.3 (20100126.1600)
 -->
<!-- Title: G Pages: 1 -->
<svg width="304pt" height="192pt"
 viewBox="0.00 0.00 304.00 192.00" xmlns="http://www.w3.org/2000/svg" xmlns:xlink="http://www.w3.org/1999/xlink">
<g id="graph1" class="graph" transform="scale(1 1) rotate(0) translate(4 188)">
<title>G</title>
<polygon fill="white" stroke="white" points="-4,5 -4,-188 301,-188 301,5 -4,5"/>
<!-- c0 -->
<g id="node1" class="node"><title>c0</title>
<polygon fill="none" stroke="black" points="115,-148 115,-179 188,-179 188,-148 115,-148"/>
<text text-anchor="start" x="119.5" y="-167.167" font-family="Helvetica,sans-Serif" font-size="10.00"> «interface» </text>
<text text-anchor="start" x="131.5" y="-154.667" font-family="Helvetica,sans-Serif" font-size="10.00"> IEntity </text>
</g>
<!-- c1 -->
<g id="node2" class="node"><title>c1</title>
<polygon fill="none" stroke="black" points="131,-80 131,-99 172,-99 172,-80 131,-80"/>
<text text-anchor="start" x="135.5" y="-87.1667" font-family="Helvetica,sans-Serif" font-style="oblique" font-size="10.00"> Entity </text>
</g>
<!-- c0&#45;&gt;c1 -->
<g id="edge2" class="edge"><title>c0:p&#45;&gt;c1:p</title>
<path fill="none" stroke="black" stroke-dasharray="5,2" d="M151,-138.199C151,-124.83 151,-109.309 151,-99.57"/>
<polygon fill="none" stroke="black" points="147.5,-138.306 151,-148.307 154.5,-138.307 147.5,-138.306"/>
</g>
<!-- c2 -->
<g id="node3" class="node"><title>c2</title>
<polygon fill="none" stroke="black" points="8,-8 8,-27 54,-27 54,-8 8,-8"/>
<text text-anchor="start" x="12.5" y="-15.1667" font-family="Helvetica,sans-Serif" font-size="10.00"> Fence </text>
</g>
<!-- c1&#45;&gt;c2 -->
<g id="edge4" class="edge"><title>c1:p&#45;&gt;c2:p</title>
<path fill="none" stroke="black" d="M126,-75.0003C102.211,-60.7266 67.1342,-39.6805 46.9273,-27.5564"/>
<polygon fill="none" stroke="black" points="124.441,-78.146 134.816,-80.2898 128.042,-72.1435 124.441,-78.146"/>
</g>
<!-- c3 -->
<g id="node4" class="node"><title>c3</title>
<polygon fill="none" stroke="black" points="88,-8 88,-27 134,-27 134,-8 88,-8"/>
<text text-anchor="start" x="92.5" y="-15.1667" font-family="Helvetica,sans-Serif" font-size="10.00"> Grass </text>
</g>
<!-- c1&#45;&gt;c3 -->
<g id="edge6" class="edge"><title>c1:p&#45;&gt;c3:p</title>
<path fill="none" stroke="black" d="M140.705,-71.4688C132.906,-57.4308 122.508,-38.7149 116.309,-27.5564"/>
<polygon fill="none" stroke="black" points="137.689,-73.2479 145.605,-80.2898 143.808,-69.8484 137.689,-73.2479"/>
</g>
<!-- c4 -->
<g id="node5" class="node"><title>c4</title>
<polygon fill="none" stroke="black" points="168,-8 168,-27 214,-27 214,-8 168,-8"/>
<text text-anchor="start" x="172.5" y="-15.1667" font-family="Helvetica,sans-Serif" font-size="10.00"> Sheep </text>
</g>
<!-- c1&#45;&gt;c4 -->
<g id="edge8" class="edge"><title>c1:p&#45;&gt;c4:p</title>
<path fill="none" stroke="black" d="M161.295,-71.4688C169.094,-57.4308 179.492,-38.7149 185.691,-27.5564"/>
<polygon fill="none" stroke="black" points="158.192,-69.8484 156.395,-80.2898 164.311,-73.2479 158.192,-69.8484"/>
</g>
<!-- c5 -->
<g id="node6" class="node"><title>c5</title>
<polygon fill="none" stroke="black" points="248,-8 248,-27 288,-27 288,-8 248,-8"/>
<text text-anchor="start" x="252.5" y="-15.1667" font-family="Helvetica,sans-Serif" font-size="10.00"> Wolf </text>
</g>
<!-- c1&#45;&gt;c5 -->
<g id="edge10" class="edge"><title>c1:p&#45;&gt;c5:p</title>
<path fill="none" stroke="black" d="M175.375,-75.0003C198.569,-60.7266 232.769,-39.6805 252.471,-27.5564"/>
<polygon fill="none" stroke="black" points="173.461,-72.0679 166.779,-80.2898 177.13,-78.0295 173.461,-72.0679"/>
</g>
</g>
</svg>
