<?xml version="1.0" encoding="UTF-8" standalone="no"?>
<!DOCTYPE svg PUBLIC "-//W3C//DTD SVG 1.1//EN"
 "http://www.w3.org/Graphics/SVG/1.1/DTD/svg11.dtd">
<!-- Generated by graphviz version 2.26.3 (20100126.1600)
 -->
<!-- Title: G Pages: 1 -->
<svg width="458pt" height="120pt"
 viewBox="0.00 0.00 458.00 120.00" xmlns="http://www.w3.org/2000/svg" xmlns:xlink="http://www.w3.org/1999/xlink">
<g id="graph1" class="graph" transform="scale(1 1) rotate(0) translate(4 116)">
<title>G</title>
<polygon fill="white" stroke="white" points="-4,5 -4,-116 455,-116 455,5 -4,5"/>
<!-- c0 -->
<g id="node1" class="node"><title>c0</title>
<polygon fill="none" stroke="black" points="206,-76 206,-107 279,-107 279,-76 206,-76"/>
<text text-anchor="start" x="210.5" y="-95.1667" font-family="Helvetica,sans-Serif" font-size="10.00"> «interface» </text>
<text text-anchor="start" x="210.5" y="-82.6667" font-family="Helvetica,sans-Serif" font-size="10.00"> IAiStrategy </text>
</g>
<!-- c1 -->
<g id="node2" class="node"><title>c1</title>
<polygon fill="none" stroke="black" points="8,-8 8,-27 154,-27 154,-8 8,-8"/>
<text text-anchor="start" x="12.5" y="-15.1667" font-family="Helvetica,sans-Serif" font-size="10.00"> AiStrategyPickAtRandom </text>
</g>
<!-- c0&#45;&gt;c1 -->
<g id="edge2" class="edge"><title>c0:p&#45;&gt;c1:p</title>
<path fill="none" stroke="black" stroke-dasharray="5,2" d="M198.854,-72.1687C167.479,-57.748 126.377,-38.8566 101.927,-27.6185"/>
<polygon fill="none" stroke="black" points="197.701,-75.491 208.249,-76.4872 200.625,-69.1307 197.701,-75.491"/>
</g>
<!-- c2 -->
<g id="node3" class="node"><title>c2</title>
<polygon fill="none" stroke="black" points="188,-8 188,-27 297,-27 297,-8 188,-8"/>
<text text-anchor="start" x="192.5" y="-15.1667" font-family="Helvetica,sans-Serif" font-size="10.00"> AiStrategyPickMin </text>
</g>
<!-- c0&#45;&gt;c2 -->
<g id="edge4" class="edge"><title>c0:p&#45;&gt;c2:p</title>
<path fill="none" stroke="black" stroke-dasharray="5,2" d="M242,-66.1986C242,-52.8303 242,-37.3086 242,-27.57"/>
<polygon fill="none" stroke="black" points="238.5,-66.3065 242,-76.3065 245.5,-66.3065 238.5,-66.3065"/>
</g>
<!-- c3 -->
<g id="node4" class="node"><title>c3</title>
<polygon fill="none" stroke="black" points="330,-8 330,-27 442,-27 442,-8 330,-8"/>
<text text-anchor="start" x="334.5" y="-15.1667" font-family="Helvetica,sans-Serif" font-size="10.00"> AiStrategyPickMax </text>
</g>
<!-- c0&#45;&gt;c3 -->
<g id="edge6" class="edge"><title>c0:p&#45;&gt;c3:p</title>
<path fill="none" stroke="black" stroke-dasharray="5,2" d="M281.318,-71.7948C309.285,-57.4229 345.603,-38.7597 367.283,-27.6185"/>
<polygon fill="none" stroke="black" points="279.482,-68.8034 272.187,-76.4872 282.681,-75.0294 279.482,-68.8034"/>
</g>
</g>
</svg>
