<?xml version="1.0" encoding="UTF-8" standalone="no"?>
<!DOCTYPE svg PUBLIC "-//W3C//DTD SVG 1.1//EN"
 "http://www.w3.org/Graphics/SVG/1.1/DTD/svg11.dtd">
<!-- Generated by graphviz version 2.26.3 (20100126.1600)
 -->
<!-- Title: G Pages: 1 -->
<svg width="508pt" height="44pt"
 viewBox="0.00 0.00 508.00 44.00" xmlns="http://www.w3.org/2000/svg" xmlns:xlink="http://www.w3.org/1999/xlink">
<g id="graph1" class="graph" transform="scale(1 1) rotate(0) translate(4 40)">
<title>G</title>
<polygon fill="white" stroke="white" points="-4,5 -4,-40 505,-40 505,5 -4,5"/>
<!-- c0 -->
<g id="node1" class="node"><title>c0</title>
<polygon fill="none" stroke="black" points="8,-8 8,-27 52,-27 52,-8 8,-8"/>
<text text-anchor="start" x="12.5" y="-15.1667" font-family="Helvetica,sans-Serif" font-size="10.00"> Rules </text>
</g>
<!-- c1 -->
<g id="node2" class="node"><title>c1</title>
<polygon fill="none" stroke="black" points="86,-8 86,-27 160,-27 160,-8 86,-8"/>
<text text-anchor="start" x="90.5" y="-15.1667" font-family="Helvetica,sans-Serif" font-size="10.00"> GameOfNm </text>
</g>
<!-- c2 -->
<g id="node3" class="node"><title>c2</title>
<polygon fill="none" stroke="black" points="194,-8 194,-27 236,-27 236,-8 194,-8"/>
<text text-anchor="start" x="198.5" y="-15.1667" font-family="Helvetica,sans-Serif" font-size="10.00"> Move </text>
</g>
<!-- c3 -->
<g id="node4" class="node"><title>c3</title>
<polygon fill="none" stroke="black" points="273,-8 273,-27 305,-27 305,-8 273,-8"/>
<text text-anchor="start" x="277.5" y="-15.1667" font-family="Helvetica,sans-Serif" font-size="10.00"> Nm </text>
</g>
<!-- c4 -->
<g id="node5" class="node"><title>c4</title>
<polygon fill="none" stroke="black" points="342,-8 342,-27 421,-27 421,-8 342,-8"/>
<text text-anchor="start" x="346.5" y="-15.1667" font-family="Helvetica,sans-Serif" font-size="10.00"> PileOfSticks </text>
</g>
<!-- c5 -->
<g id="node6" class="node"><title>c5</title>
<polygon fill="none" stroke="black" points="455,-8 455,-27 491,-27 491,-8 455,-8"/>
<text text-anchor="start" x="459.5" y="-15.1667" font-family="Helvetica,sans-Serif" font-style="oblique" font-size="10.00"> Utils </text>
</g>
</g>
</svg>
