<?xml version="1.0" encoding="UTF-8" standalone="no"?>
<!DOCTYPE svg PUBLIC "-//W3C//DTD SVG 1.1//EN"
 "http://www.w3.org/Graphics/SVG/1.1/DTD/svg11.dtd">
<!-- Generated by graphviz version 2.26.3 (20100126.1600)
 -->
<!-- Title: G Pages: 1 -->
<svg width="236pt" height="192pt"
 viewBox="0.00 0.00 236.00 192.00" xmlns="http://www.w3.org/2000/svg" xmlns:xlink="http://www.w3.org/1999/xlink">
<g id="graph1" class="graph" transform="scale(1 1) rotate(0) translate(4 188)">
<title>G</title>
<polygon fill="white" stroke="white" points="-4,5 -4,-188 233,-188 233,5 -4,5"/>
<!-- c0 -->
<g id="node1" class="node"><title>c0</title>
<polygon fill="none" stroke="black" points="74,-148 74,-179 147,-179 147,-148 74,-148"/>
<text text-anchor="start" x="78.5" y="-167.167" font-family="Helvetica,sans-Serif" font-size="10.00"> «interface» </text>
<text text-anchor="start" x="90" y="-154.667" font-family="Helvetica,sans-Serif" font-size="10.00"> IPlayer </text>
</g>
<!-- c1 -->
<g id="node2" class="node"><title>c1</title>
<polygon fill="none" stroke="black" points="89,-80 89,-99 132,-99 132,-80 89,-80"/>
<text text-anchor="start" x="93.5" y="-87.1667" font-family="Helvetica,sans-Serif" font-style="oblique" font-size="10.00"> Player </text>
</g>
<!-- c0&#45;&gt;c1 -->
<g id="edge2" class="edge"><title>c0:p&#45;&gt;c1:p</title>
<path fill="none" stroke="black" stroke-dasharray="5,2" d="M110,-138.199C110,-124.83 110,-109.309 110,-99.57"/>
<polygon fill="none" stroke="black" points="106.5,-138.306 110,-148.307 113.5,-138.307 106.5,-138.306"/>
</g>
<!-- c2 -->
<g id="node3" class="node"><title>c2</title>
<polygon fill="none" stroke="black" points="8,-8 8,-27 90,-27 90,-8 8,-8"/>
<text text-anchor="start" x="12.5" y="-15.1667" font-family="Helvetica,sans-Serif" font-size="10.00"> PlayerHuman </text>
</g>
<!-- c1&#45;&gt;c2 -->
<g id="edge4" class="edge"><title>c1:p&#45;&gt;c2:p</title>
<path fill="none" stroke="black" d="M94.9816,-72.2734C83.0188,-58.1534 66.7319,-38.9295 57.0964,-27.5564"/>
<polygon fill="none" stroke="black" points="92.6386,-74.9224 101.773,-80.2898 97.9795,-70.3974 92.6386,-74.9224"/>
</g>
<!-- c3 -->
<g id="node4" class="node"><title>c3</title>
<polygon fill="none" stroke="black" points="124,-8 124,-27 221,-27 221,-8 124,-8"/>
<text text-anchor="start" x="128.5" y="-15.1667" font-family="Helvetica,sans-Serif" font-size="10.00"> PlayerComputer </text>
</g>
<!-- c1&#45;&gt;c3 -->
<g id="edge6" class="edge"><title>c1:p&#45;&gt;c3:p</title>
<path fill="none" stroke="black" d="M124.922,-72.6717C137.111,-58.5168 153.885,-39.0368 163.771,-27.5564"/>
<polygon fill="none" stroke="black" points="122.235,-70.4282 118.362,-80.2898 127.539,-74.9959 122.235,-70.4282"/>
</g>
</g>
</svg>
